<svg width="41" height="40" viewBox="0 0 41 40" fill="none" xmlns="http://www.w3.org/2000/svg">
<path d="M8.9225 5.58721C8.13956 4.80426 6.87015 4.80426 6.08721 5.58721C5.30426 6.37015 5.30426 7.63956 6.08721 8.4225L17.6647 20L6.08733 31.5774C5.30438 32.3603 5.30438 33.6297 6.08733 34.4127C6.87027 35.1956 8.13968 35.1956 8.92262 34.4127L20.5 22.8353L32.0774 34.4127C32.8603 35.1956 34.1297 35.1956 34.9127 34.4127C35.6956 33.6297 35.6956 32.3603 34.9127 31.5774L23.3353 20L34.9128 8.4225C35.6957 7.63956 35.6957 6.37015 34.9128 5.58721C34.1298 4.80426 32.8604 4.80426 32.0775 5.58721L20.5 17.1647L8.9225 5.58721Z" fill="black"/>
</svg>
