<svg xmlns="http://www.w3.org/2000/svg" xmlns:xlink="http://www.w3.org/1999/xlink" version="1.1" id="Layer_1" x="0px" y="0px" enable-background="new 0 0 1000 1000" xml:space="preserve" viewBox="115.9 330.7 768.2 291">
<g>
	<g>
		<polygon fill="#FFFFFF" points="447.5,330.7 401,357.6 447.5,384.4   "/>
		<polygon fill="#FFFFFF" points="399.5,413.9 446,387 399.5,360.2   "/>
		<polygon fill="#FFFFFF" points="447.5,389.6 401,416.5 447.5,443.3   "/>
		<polygon fill="#FFFFFF" points="399.5,472.8 446,445.9 399.5,419.1   "/>
		<polygon fill="#FFFFFF" points="447.5,448.5 401,475.4 447.5,502.2   "/>
		<polygon fill="#FFFFFF" points="450.5,502.2 497,475.4 450.5,448.5   "/>
		<polygon fill="#FFFFFF" points="498.5,478 452,504.8 498.5,531.7   "/>
		<polygon fill="#FFFFFF" points="552.5,384.4 599,357.6 552.5,330.7   "/>
		<polygon fill="#FFFFFF" points="600.5,360.2 554,387 600.5,413.9   "/>
		<polygon fill="#FFFFFF" points="552.5,443.3 599,416.5 552.5,389.6   "/>
		<polygon fill="#FFFFFF" points="600.5,419.1 554,445.9 600.5,472.8   "/>
		<polygon fill="#FFFFFF" points="552.5,502.2 599,475.4 552.5,448.5   "/>
		<polygon fill="#FFFFFF" points="549.5,448.5 503,475.4 549.5,502.2   "/>
		<polygon fill="#FFFFFF" points="501.5,531.7 548,504.8 501.5,478   "/>
	</g>
	<g>
		<g>
			<g>
				<path fill="#FFFFFF" d="M160.1,572.4h8.3v27.2c0,3.8-0.5,7-1.5,9.8c-1,2.8-2.5,5.1-4.6,6.9c-2.1,1.8-4.8,3.2-8.1,4.1      c-3.3,0.9-7.4,1.3-12.1,1.3c-4.7,0-8.7-0.4-12-1.3c-3.3-0.9-6-2.3-8.1-4.1c-2.1-1.8-3.6-4.1-4.6-6.9c-1-2.8-1.5-6.1-1.5-9.8      v-27.2h8.8v27.2c0,2.5,0.3,4.6,0.9,6.3c0.6,1.7,1.6,3.2,2.9,4.3c1.4,1.1,3.2,1.9,5.5,2.4c2.3,0.5,5.1,0.8,8.4,0.8      s6.2-0.3,8.4-0.8c2.3-0.5,4.1-1.3,5.5-2.4c1.4-1.1,2.3-2.5,2.9-4.3c0.6-1.7,0.9-3.8,0.9-6.3V572.4z"/>
				<path fill="#FFFFFF" d="M184,585.5v35.6h-8.1v-44.2c0-1.6,0.4-2.8,1.2-3.7c0.8-0.9,1.8-1.4,3.2-1.4c0.6,0,1.2,0.1,1.8,0.4      c0.6,0.3,1.2,0.7,1.8,1.3l34.4,34.1V572h8.1v44.6c0,1.6-0.4,2.9-1.2,3.7c-0.8,0.9-1.8,1.3-3,1.3c-1.4,0-2.7-0.6-3.9-1.8      L184,585.5z"/>
				<path fill="#FFFFFF" d="M234.6,621.1v-8.5h36.5c2.3,0,4-0.6,5.3-1.7c1.2-1.2,1.8-2.7,1.8-4.6c0-2.1-0.6-3.7-1.8-4.7      c-1.2-1-3-1.6-5.3-1.6h-22.4c-2.3,0-4.3-0.3-6.2-1c-1.9-0.7-3.4-1.7-4.7-2.9c-1.3-1.2-2.3-2.7-2.9-4.4c-0.7-1.7-1-3.5-1-5.6      c0-2,0.3-3.8,1-5.5c0.6-1.7,1.6-3.1,2.9-4.3c1.3-1.2,2.8-2.2,4.7-2.8c1.9-0.7,4-1,6.4-1h35v8.5h-35c-2,0-3.5,0.5-4.6,1.6      c-1.1,1-1.6,2.5-1.6,4.4c0,1.9,0.5,3.3,1.6,4.4c1.1,1,2.6,1.5,4.5,1.5h22.3c5,0,8.7,1.2,11.3,3.5c2.6,2.3,3.9,5.8,3.9,10.6      c0,2.1-0.3,4-0.9,5.7c-0.6,1.7-1.6,3.2-2.8,4.5c-1.3,1.3-2.8,2.3-4.7,3c-1.9,0.7-4.1,1.1-6.7,1.1H234.6z"/>
				<path fill="#FFFFFF" d="M309.1,621.1v-40.2h-18.5v-8.5h45.5v8.5h-18.5v40.2H309.1z"/>
				<path fill="#FFFFFF" d="M387,621.1l-12.3-13.5h-18.2v-7.5h20.3c3.1,0,5.4-0.8,7-2.5c1.6-1.7,2.3-4.1,2.3-7.3s-0.8-5.5-2.4-7.1      c-1.6-1.5-3.9-2.3-6.9-2.3h-26.5v40.2h-8.4v-48.7h35c2.8,0,5.2,0.4,7.4,1.2c2.2,0.8,4,2,5.6,3.5c1.5,1.5,2.7,3.4,3.5,5.6      c0.8,2.2,1.2,4.6,1.2,7.4c0,4.1-0.9,7.5-2.6,10.2c-1.8,2.7-4.2,4.7-7.4,5.9l14.7,14.8H387z"/>
				<path fill="#FFFFFF" d="M445.4,572.4h8.3v27.2c0,3.8-0.5,7-1.5,9.8c-1,2.8-2.5,5.1-4.6,6.9c-2.1,1.8-4.8,3.2-8.1,4.1      c-3.3,0.9-7.4,1.3-12.1,1.3c-4.7,0-8.7-0.4-12-1.3c-3.3-0.9-6-2.3-8.1-4.1c-2.1-1.8-3.6-4.1-4.6-6.9c-1-2.8-1.5-6.1-1.5-9.8      v-27.2h8.8v27.2c0,2.5,0.3,4.6,0.9,6.3c0.6,1.7,1.6,3.2,2.9,4.3c1.4,1.1,3.2,1.9,5.5,2.4c2.3,0.5,5.1,0.8,8.4,0.8      s6.2-0.3,8.4-0.8c2.3-0.5,4.1-1.3,5.5-2.4c1.4-1.1,2.3-2.5,2.9-4.3c0.6-1.7,0.9-3.8,0.9-6.3V572.4z"/>
				<path fill="#FFFFFF" d="M483.6,621.1c-3.4,0-6.5-0.6-9.4-1.9c-2.9-1.3-5.4-3-7.5-5.2c-2.1-2.2-3.8-4.8-5-7.9      c-1.2-3-1.8-6.3-1.8-9.8c0-3.6,0.6-6.8,1.8-9.8c1.2-2.9,2.8-5.5,5-7.5c2.1-2.1,4.6-3.7,7.5-4.8c2.9-1.1,6-1.7,9.4-1.7H510v8.5      h-26.4c-2.2,0-4.2,0.4-6.1,1.2c-1.9,0.8-3.4,1.9-4.8,3.2c-1.3,1.4-2.4,3-3.1,5c-0.8,1.9-1.1,4-1.1,6.4c0,2.3,0.4,4.4,1.1,6.4      c0.8,2,1.8,3.6,3.1,5.1c1.3,1.4,2.9,2.5,4.8,3.3c1.9,0.8,3.9,1.2,6.1,1.2H510v8.5H483.6z"/>
				<path fill="#FFFFFF" d="M532.5,621.1v-40.2H514v-8.5h45.5v8.5H541v40.2H532.5z"/>
				<path fill="#FFFFFF" d="M608.6,572.4h8.3v27.2c0,3.8-0.5,7-1.5,9.8c-1,2.8-2.5,5.1-4.6,6.9c-2.1,1.8-4.8,3.2-8.1,4.1      c-3.3,0.9-7.4,1.3-12.1,1.3c-4.7,0-8.7-0.4-12-1.3c-3.3-0.9-6-2.3-8.1-4.1c-2.1-1.8-3.6-4.1-4.6-6.9c-1-2.8-1.5-6.1-1.5-9.8      v-27.2h8.8v27.2c0,2.5,0.3,4.6,0.9,6.3c0.6,1.7,1.6,3.2,2.9,4.3c1.4,1.1,3.2,1.9,5.5,2.4c2.3,0.5,5.1,0.8,8.4,0.8      s6.2-0.3,8.4-0.8c2.3-0.5,4.1-1.3,5.5-2.4c1.4-1.1,2.3-2.5,2.9-4.3c0.6-1.7,0.9-3.8,0.9-6.3V572.4z"/>
				<path fill="#FFFFFF" d="M669.8,621.1l-12.3-13.5h-18.2v-7.5h20.3c3.1,0,5.4-0.8,7-2.5c1.6-1.7,2.3-4.1,2.3-7.3s-0.8-5.5-2.4-7.1      c-1.6-1.5-3.9-2.3-6.9-2.3h-26.5v40.2h-8.4v-48.7h35c2.8,0,5.2,0.4,7.4,1.2c2.2,0.8,4,2,5.6,3.5c1.5,1.5,2.7,3.4,3.5,5.6      c0.8,2.2,1.2,4.6,1.2,7.4c0,4.1-0.9,7.5-2.6,10.2c-1.8,2.7-4.2,4.7-7.4,5.9l14.7,14.8H669.8z"/>
				<path fill="#FFFFFF" d="M686.3,621.1v-48.7h43.5v8.5h-35v31.7h35.1v8.5H686.3z M701,599.9v-7.2h27v7.2H701z"/>
				<path fill="#FFFFFF" d="M737.1,621.1v-48.7h28.2c3.4,0,6.6,0.6,9.5,1.7s5.4,2.8,7.5,4.9c2.1,2.1,3.7,4.6,4.9,7.5      c1.2,2.9,1.8,6.2,1.8,9.7c0,3.5-0.6,6.8-1.8,9.8c-1.2,3-2.8,5.7-4.9,7.9c-2.1,2.2-4.6,4-7.5,5.2c-2.9,1.3-6.1,1.9-9.5,1.9H737.1      z M765.3,612.6c2.2,0,4.2-0.4,6.1-1.2c1.9-0.8,3.5-1.9,4.8-3.3c1.4-1.4,2.4-3.1,3.2-5.1c0.8-2,1.1-4.1,1.1-6.4      c0-2.3-0.4-4.4-1.1-6.3c-0.8-1.9-1.8-3.6-3.2-5c-1.4-1.4-3-2.5-4.8-3.2c-1.9-0.8-3.9-1.2-6.1-1.2h-19.8v31.7H765.3z"/>
			</g>
		</g>
		<g>
			<path fill="#FFFFFF" d="M800,617.2c0,1.3-0.4,2.4-1.3,3.2c-0.9,0.9-2,1.3-3.3,1.3c-1.3,0-2.4-0.4-3.2-1.3c-0.8-0.9-1.3-2-1.3-3.2     c0-1.3,0.4-2.4,1.3-3.2c0.8-0.9,1.9-1.3,3.2-1.3c1.3,0,2.4,0.4,3.3,1.3C799.5,614.8,800,615.9,800,617.2z"/>
			<path fill="#FFFFFF" d="M808.9,621.2v-48.6h8.5v48.6H808.9z"/>
			<path fill="#FFFFFF" d="M848.5,621.2c-3.4,0-6.5-0.6-9.4-1.9c-2.9-1.3-5.4-3-7.5-5.2c-2.1-2.2-3.8-4.8-5-7.9     c-1.2-3-1.8-6.3-1.8-9.8c0-3.6,0.6-6.8,1.8-9.8c1.2-2.9,2.8-5.5,5-7.5c2.1-2.1,4.6-3.7,7.5-4.8c2.9-1.1,6-1.7,9.4-1.7h11.8     c3.5,0,6.7,0.6,9.7,1.7c2.9,1.2,5.4,2.8,7.5,4.9c2.1,2.1,3.7,4.6,4.9,7.5c1.2,2.9,1.7,6.1,1.7,9.7c0,3.5-0.6,6.8-1.8,9.8     c-1.2,3-2.8,5.7-5,7.9c-2.1,2.2-4.6,3.9-7.5,5.2c-2.9,1.3-6.1,1.9-9.6,1.9H848.5z M860.3,612.7c2.2,0,4.3-0.4,6.2-1.2     c1.9-0.8,3.5-1.9,4.9-3.3c1.4-1.4,2.4-3.1,3.2-5.1c0.8-2,1.1-4.1,1.1-6.4c0-2.3-0.4-4.4-1.1-6.3c-0.8-1.9-1.8-3.6-3.2-5     c-1.4-1.4-3-2.5-4.9-3.2c-1.9-0.8-3.9-1.2-6.2-1.2h-11.8c-2.2,0-4.2,0.4-6.1,1.2c-1.9,0.8-3.4,1.9-4.8,3.2c-1.3,1.4-2.4,3-3.1,5     c-0.8,1.9-1.1,4-1.1,6.4c0,2.3,0.4,4.4,1.1,6.4c0.8,2,1.8,3.6,3.1,5.1c1.3,1.4,2.9,2.5,4.8,3.3c1.9,0.8,3.9,1.2,6.1,1.2H860.3z"/>
		</g>
	</g>
</g>
</svg>