
<svg width="17px" height="16px" viewBox="0 0 17 16" version="1.1" xmlns="http://www.w3.org/2000/svg" xmlns:xlink="http://www.w3.org/1999/xlink">
    <defs></defs>
    <g id="On-process-Explore-vs-feedback" stroke="none" stroke-width="1" fill="none" fill-rule="evenodd">
        <g id="Master-Copy" transform="translate(-432.000000, -26.000000)" fill="#0508D9">
            <g id="Icon_search" transform="translate(427.000000, 22.000000)">
                <path d="M11.8152,13.68 C12.5496037,13.68 13.2263969,13.5100017 13.8456,13.17 C14.4648031,12.8299983 14.9543982,12.3733362 15.3144,11.8 C15.6744018,11.2266638 15.8544,10.6000034 15.8544,9.92 C15.8544,9.2399966 15.6744018,8.6133362 15.3144,8.04 C14.9543982,7.4666638 14.4648031,7.013335 13.8456,6.68 C13.2263969,6.346665 12.5496037,6.18 11.8152,6.18 C11.0807963,6.18 10.4040031,6.346665 9.7848,6.68 C9.1655969,7.013335 8.67240184,7.4666638 8.3052,8.04 C7.93799816,8.6133362 7.7544,9.2399966 7.7544,9.92 C7.7544,10.6000034 7.93799816,11.2266638 8.3052,11.8 C8.67240184,12.3733362 9.1655969,12.8299983 9.7848,13.17 C10.4040031,13.5100017 11.0807963,13.68 11.8152,13.68 Z M17.2152,13.68 L21.6864,17.82 L20.3256,19.08 L15.8544,14.92 L15.8544,14.26 L15.5952,14.04 C15.0911975,14.4533354 14.5116033,14.7699989 13.8564,14.99 C13.2011967,15.2100011 12.5208035,15.32 11.8152,15.32 C10.7495947,15.32 9.7668045,15.0800024 8.8668,14.6 C7.9667955,14.1199976 7.25760259,13.4733374 6.7392,12.66 C6.20639734,11.8199958 5.94,10.9066716 5.94,9.92 C5.94,8.9333284 6.20279737,8.0233375 6.7284,7.19 C7.25400263,6.3566625 7.9667955,5.7000024 8.8668,5.22 C9.7668045,4.7399976 10.7495947,4.5 11.8152,4.5 C12.8808053,4.5 13.8671955,4.7466642 14.7744,5.24 C15.6528044,5.7200024 16.3475974,6.3733292 16.8588,7.2 C17.3700026,8.0266708 17.6256,8.9333284 17.6256,9.92 C17.6256,10.58667 17.5068012,11.2233303 17.2692,11.83 C17.0315988,12.4366697 16.6896022,12.973331 16.2432,13.44 L16.4808,13.68 L17.2152,13.68 Z" id="search---material"></path>
            </g>
        </g>
    </g>
</svg>