<svg id="Capa_1" data-name="Capa 1" xmlns="http://www.w3.org/2000/svg" viewBox="0 0 163.04 35.12"><defs><style>.cls-1{fill:#0508d9;}.cls-2{fill:#f2067a;}</style></defs><title>LogoArgilla</title><path class="cls-1" d="M15.52,19.8,27.14,34.5H20.21L9.49,20.38h-1V34.5H2.81V0H9.44q7.44,0,10.75,2.57a9.12,9.12,0,0,1,3.64,7.55,9.3,9.3,0,0,1-2.28,6.3A10.44,10.44,0,0,1,15.52,19.8Zm-7-4h1.8q8,0,8-5.65,0-5.29-7.82-5.3h-2Z"/><path class="cls-1" d="M36.74,0V20.78q0,4.44,1.57,6.5a8,8,0,0,0,6.64,3,8,8,0,0,0,6.66-3q1.57-2,1.58-6.5V0h5.66V22.21a11.89,11.89,0,0,1-3.69,9A14.29,14.29,0,0,1,45,35.12a14.2,14.2,0,0,1-10.18-3.93,11.86,11.86,0,0,1-3.7-9V0Z"/><path class="cls-1" d="M66.7,34.5V0h5.64a26.57,26.57,0,0,1,6,.54,8.84,8.84,0,0,1,6.32,5.09,9.32,9.32,0,0,1,1,4,7.88,7.88,0,0,1-3.09,6.28,9,9,0,0,1,4.72,3.28A8.74,8.74,0,0,1,89,24.62a8.85,8.85,0,0,1-3.11,6.84,10.4,10.4,0,0,1-4.21,2.39,26.57,26.57,0,0,1-6.39.65Zm5.66-19.69h1.78a6.92,6.92,0,0,0,4.63-1.28,4.77,4.77,0,0,0,1.47-3.79A4.56,4.56,0,0,0,78.73,6a6.64,6.64,0,0,0-4.37-1.26h-2Zm0,14.8h3.5c2.56,0,4.44-.47,5.64-1.39a4.63,4.63,0,0,0,1.9-3.8,4.7,4.7,0,0,0-1.82-3.75c-1.19-1-3.3-1.5-6.35-1.5H72.36Z"/><path class="cls-1" d="M107.7,19.8l11.62,14.7h-6.93L101.67,20.38h-1V34.5H95V0h6.63q7.44,0,10.75,2.57A9.12,9.12,0,0,1,116,10.12a9.3,9.3,0,0,1-2.28,6.3A10.38,10.38,0,0,1,107.7,19.8Zm-7-4h1.8q8,0,8-5.65,0-5.29-7.83-5.3h-2Z"/><path class="cls-1" d="M129.48,0V34.5h-5.67V0Z"/><path class="cls-1" d="M145.2,16.47,134.87,0h6.44l7.17,11.69L156,0h6.48L151.69,16.47,163,34.5H156.7l-8.32-13.21L139.83,34.5h-6.42Z"/><path class="cls-2" d="M15.51,8.73q0,5.65-8,5.65H5.66V5.25H0V33H5.66V18.92h1L17.4,33h6.93L12.71,18.34a10.33,10.33,0,0,0,6-3.38A9.28,9.28,0,0,0,21,8.66a9.88,9.88,0,0,0-.57-3.41H14.14A4.53,4.53,0,0,1,15.51,8.73Z"/><path class="cls-2" d="M50.38,19.32c0,3-.52,5.18-1.58,6.5a8,8,0,0,1-6.66,3,8,8,0,0,1-6.63-3c-1.06-1.37-1.58-3.53-1.58-6.5V5.25H28.26v15.5a11.88,11.88,0,0,0,3.7,9,14.17,14.17,0,0,0,10.18,3.94,14.26,14.26,0,0,0,10.21-3.94,11.88,11.88,0,0,0,3.7-9V5.25H50.38Z"/><path class="cls-2" d="M77.43,8.28A4.77,4.77,0,0,1,76,12.07a6.9,6.9,0,0,1-4.63,1.29H69.56V5.25H63.89V33h8.58a26.72,26.72,0,0,0,6.4-.65A10.31,10.31,0,0,0,83.07,30a8.84,8.84,0,0,0,3.11-6.83,8.72,8.72,0,0,0-1.75-5.41,9,9,0,0,0-4.71-3.29A7.89,7.89,0,0,0,82.8,8.19a8.83,8.83,0,0,0-.51-2.94H76.54A4.89,4.89,0,0,1,77.43,8.28ZM80.59,23a4.64,4.64,0,0,1-1.89,3.8q-1.8,1.39-5.64,1.39h-3.5V17.71h2.86q4.58,0,6.35,1.5A4.7,4.7,0,0,1,80.59,23Z"/><path class="cls-2" d="M107.69,8.73q0,5.65-8,5.65H97.85V5.25H92.18V33h5.67V18.92h1L109.58,33h6.93l-11.62-14.7a10.33,10.33,0,0,0,6-3.38,9.29,9.29,0,0,0,2.29-6.3,9.88,9.88,0,0,0-.58-3.41h-6.3A4.56,4.56,0,0,1,107.69,8.73Z"/><rect class="cls-2" x="121.01" y="5.25" width="5.66" height="27.79"/><polygon class="cls-2" points="148.89 5.25 145.67 10.23 142.62 5.25 136.27 5.25 142.39 15.01 130.6 33.04 137.02 33.04 145.58 19.84 153.89 33.04 160.23 33.04 148.88 15.01 155.29 5.25 148.89 5.25"/></svg>